<svg id="visual" viewBox="0 0 900 200" width="900" height="200" xmlns="http://www.w3.org/2000/svg" xmlns:xlink="http://www.w3.org/1999/xlink" version="1.1"><path d="M0 140L15 145.2C30 150.3 60 160.7 90 164.5C120 168.3 150 165.7 180 160.7C210 155.7 240 148.3 270 150.3C300 152.3 330 163.7 360 161C390 158.3 420 141.7 450 139.8C480 138 510 151 540 151.5C570 152 600 140 630 141.2C660 142.3 690 156.7 720 157.3C750 158 780 145 810 139C840 133 870 134 885 134.5L900 135L900 201L885 201C870 201 840 201 810 201C780 201 750 201 720 201C690 201 660 201 630 201C600 201 570 201 540 201C510 201 480 201 450 201C420 201 390 201 360 201C330 201 300 201 270 201C240 201 210 201 180 201C150 201 120 201 90 201C60 201 30 201 15 201L0 201Z" fill="#FFF"></path></svg>